<?xml version="1.0" encoding="utf-8"?>
<svg xmlns="http://www.w3.org/2000/svg" viewBox="0 0 660.1 231"><style>.st0{fill:#7C287D;}</style><switch><g><path class="st0" d="M531.8 76.305l13.86-13.86 98.358 98.358-13.86 13.86z"/><path class="st0" d="M631.543 63.782l13.86 13.86-98.36 98.357-13.858-13.86zM16.4 17.3h22.7v22.8H16.4zM16.4 61.1h22.7v115.6H16.4z"/><path d="M177.9 61.4v115.3h-22.7v-75.4l-35 33.9-33.9-33.9v75.4H62.6V61.4h17l40.6 41.4 41.4-41.4h16.3zM315.9 130.4h-92.6v46.3h-22.7V61.4h115.3v69zM292.3 85h-69v22.5h69V85zM362.9 84.1v23.4h91.7v22.9h-91.7v22.7h91.7v23.6H339.3V61.2h115.3v22.9h-91.7zM62.6 17.3h254.2v22.8H62.6zM338.9 17.3h306.4v22.8H338.9z"/><path d="M481.6 19.5h22.8v157.2h-22.8zM17.1 198.4h628.3v20.2H17.1z"/></g></switch></svg>
